<svg width="15" height="21" xmlns="http://www.w3.org/2000/svg"><path d="M7.5 14c2.475 0 4.5-1.969 4.5-4.375v-5.25C12 1.969 9.975 0 7.5 0S3 1.969 3 4.375v5.25C3 12.031 5.025 14 7.5 14zm7.49-3.077c.071-.437-.242-.844-.703-.91-.46-.066-.89.231-.96.666-.442 2.696-2.945 4.728-5.827 4.728s-5.387-2.034-5.827-4.73c-.07-.438-.502-.735-.96-.667-.46.067-.774.474-.703.91.532 3.26 3.263 5.688 6.648 6.038v2.444H4.13c-.465 0-.842.357-.842.799 0 .442.377.799.842.799h6.738c.466 0 .842-.357.842-.799 0-.442-.376-.799-.842-.799H8.342v-2.444c3.382-.35 6.116-2.776 6.648-6.035z" fill="#E60808" fill-rule="evenodd"/></svg>