<?xml version="1.0" encoding="UTF-8"?>
<svg width="15px" height="21px" viewBox="0 0 15 21" version="1.1" xmlns="http://www.w3.org/2000/svg" xmlns:xlink="http://www.w3.org/1999/xlink">
    <!-- Generator: Sketch 53 (72520) - https://sketchapp.com -->
    <title>Fill 1</title>
    <desc>Created with Sketch.</desc>
    <g id="Page-1" stroke="none" stroke-width="1" fill="none" fill-rule="evenodd">
        <g id="题库" transform="translate(-31.000000, -250.000000)" fill="#E60808">
            <g id="Group-2" transform="translate(26.000000, 248.000000)">
                <path d="M12.5,16 C14.9751055,16 17,14.0311913 17,11.6250214 L17,6.37497864 C17,3.96880875 14.9751055,2 12.5,2 C10.0250703,2 8,3.96880875 8,6.37497864 L8,11.6250214 C8,14.0311913 10.0250703,16 12.5,16 Z M19.9899479,12.9233589 C20.0610052,12.4864368 19.7478596,12.0793814 19.2873032,12.0120954 C18.8267467,11.9471188 18.3978041,12.2441947 18.3267139,12.6786825 C17.8845468,15.3750849 15.3818171,17.4074281 12.4999836,17.4074281 C9.61831452,17.4074281 7.11288725,15.3726506 6.67338478,12.6761234 C6.60232749,12.2392013 6.17068737,11.9421254 5.71269685,12.0095363 C5.25214036,12.0769471 4.93899485,12.4838777 5.01005213,12.9207998 C5.54166591,16.1790528 8.2733909,18.6083398 11.6579218,18.9578463 L11.6579218,21.4021446 L9.13140763,21.4021446 C8.66558764,21.4021446 8.28918141,21.7590788 8.28918141,22.2009943 C8.28918141,22.642941 8.66558764,23 9.13140763,23 L15.868724,23 C16.3345439,23 16.7107857,22.642941 16.7107857,22.2009943 C16.7107857,21.7590788 16.3345439,21.4021446 15.868724,21.4021446 L13.3422098,21.4021446 L13.3422098,18.9578463 C16.7240431,18.6083398 19.4583341,16.1815183 19.9899479,12.9233589 Z" id="Fill-1"></path>
            </g>
        </g>
    </g>
</svg>