<svg width="40" height="40" xmlns="http://www.w3.org/2000/svg"><g fill="none" fill-rule="evenodd"><rect fill="#20C6E2" width="40" height="40" rx="12"/><path d="M10 12.233v15.663c1.517-.984 3.033-1.301 4.55-.952 1.516.349 3.033 1.031 4.55 2.047l.015-15.487c-1.514-1.763-3.033-2.595-4.557-2.496-1.525.098-3.044.507-4.558 1.225zm10.884 1.273V29c1.52-1.017 3.039-1.7 4.558-2.05 1.52-.35 3.039-.034 4.558.949V12.235c-1.524-.718-3.044-1.127-4.558-1.225-1.514-.098-3.033.734-4.558 2.496z" fill="#FFF"/></g></svg>