<svg width="40" height="40" xmlns="http://www.w3.org/2000/svg"><g fill="none" fill-rule="evenodd"><rect fill="#6B42CD" width="40" height="40" rx="12"/><path d="M29.485 29.364C31.657 27.735 32 25.485 32 23c0-4.97-5.373-11-12-11S8 18.03 8 23c0 2.485.343 4.735 2.515 6.364h18.97z" fill="#FFF"/><path d="M27.541 15.455c2.1 1.869 3.412 4.535 3.412 7.494 0 2.06-.635 3.976-1.73 5.583l.016.009 1.25.777.018.01a11.284 11.284 0 0 0 1.977-6.379c0-3.382-1.5-6.428-3.9-8.565l-1.043 1.07zm-7.3-2.746c-5.915 0-10.71 4.585-10.71 10.24a9.848 9.848 0 0 0 1.62 5.42c.032.035.06.073.085.114-.895.488-1.346.723-1.355.704A11.256 11.256 0 0 1 8 22.949c0-6.463 5.481-11.704 12.242-11.704 1.25 0 2.459.18 3.596.514l-.45 1.399a11.177 11.177 0 0 0-3.146-.45z" fill="#FFF"/><path d="M18.93 21.985c-1.11 1.434-1.734 2.512-.166 3.417 1.588.916 1.758.264 2.952-1.98 1.192-2.244 4.076-8.16 5.149-10.965 1.072-2.806.474-1.587-.487-.313-2.387 3.164-6.656 8.82-7.448 9.841zm-1.581-1.224c.643-.83 3.578-4.712 7.432-9.821-.05.066 1.001-1.437 1.32-1.704.154-.125.154-.125.468-.297.48-.202.48-.202 1.456-.093.975.56.975.56 1.288 1.237.122.473.122.473.122.726-.003.3-.05.509-.146.822a27.12 27.12 0 0 1-.556 1.54c-.966 2.526-3.691 8.253-5.251 11.19.036-.068-.518.985-.653 1.23-.259.467-.47.8-.72 1.099-1.183 1.414-2.673 1.409-4.345.444-1.423-.822-2.155-2.09-1.89-3.589.162-.926.594-1.646 1.475-2.784z" fill="#6B42CD" fill-rule="nonzero"/></g></svg>