<svg width="40" height="40" xmlns="http://www.w3.org/2000/svg"><g fill="none" fill-rule="evenodd"><rect fill="#42CD44" width="40" height="40" rx="12"/><path d="M29.9 25.863v1.31c0 1.312-3.78 2.523-3.78 2.523v2.521H13.78v-2.521S10 28.384 10 27.174v-1.311h3.781V22.13S10 20.82 10 19.61v-1.312h3.781v-3.732S10 13.254 10 12.043v-1.31h3.781C13.781 8.714 15.373 7 17.463 7h4.975c2.09 0 3.78 1.715 3.78 3.732H30v1.311c0 1.312-3.781 2.522-3.781 2.522v3.732H30v1.312c0 1.311-3.781 2.521-3.781 2.521v3.733H29.9zM20.435 9.609a2.583 2.583 0 0 0-2.609 2.608 2.583 2.583 0 0 0 2.609 2.61 2.583 2.583 0 0 0 2.608-2.61 2.583 2.583 0 0 0-2.608-2.608zm0 6.956a2.583 2.583 0 0 0-2.609 2.609 2.583 2.583 0 0 0 2.609 2.609 2.583 2.583 0 0 0 2.608-2.609 2.583 2.583 0 0 0-2.608-2.609zm0 7.826A2.583 2.583 0 0 0 17.826 27a2.583 2.583 0 0 0 2.609 2.609 2.583 2.583 0 0 0 2.608-2.61 2.583 2.583 0 0 0-2.608-2.608z" fill="#FFF"/></g></svg>