<?xml version="1.0" encoding="UTF-8"?>
<svg width="40px" height="40px" viewBox="0 0 40 40" version="1.1" xmlns="http://www.w3.org/2000/svg" xmlns:xlink="http://www.w3.org/1999/xlink">
    <!-- Generator: Sketch 53 (72520) - https://sketchapp.com -->
    <title>Group 7</title>
    <desc>Created with Sketch.</desc>
    <g id="Page-1" stroke="none" stroke-width="1" fill="none" fill-rule="evenodd">
        <g id="首页" transform="translate(-294.000000, -416.000000)">
            <g id="Group-7" transform="translate(294.000000, 416.000000)">
                <rect id="Rectangle-2" fill="#1E40E4" x="0" y="0" width="40" height="40" rx="12"></rect>
                <g id="jiyi" transform="translate(10.000000, 7.000000)">
                    <g id="Group-4">
                        <polygon id="Fill-1" fill="#F9BA48" points="9.4510453 2.00594807 13.0785714 4.09811594 13.0785714 8.28241667 9.4510453 10.3744094 5.82369338 8.28241667 5.82369338 4.09811594"></polygon>
                        <path d="M10.7484059,0 C5.69384146,0 1.53115854,4.54287802 1.53115854,10.161663 L1.53115854,10.3410217 L0.0446080139,13.5688478 C-0.014869338,13.6884203 -0.014869338,13.8676739 0.0446080139,14.0470326 C0.104085366,14.1666051 0.222900697,14.3459638 0.341855401,14.40575 L2.72046167,15.5414432 L2.72046167,19.7853901 C2.72046167,20.1441075 2.95837108,20.3831123 3.31523519,20.3831123 L6.28847561,20.3831123 L6.28847561,24.567413 C6.28847561,24.9259903 6.52641986,25.1651353 6.8831446,25.1651353 L15.2083362,25.1651353 C15.5650958,25.1651353 15.8030052,24.9259903 15.8030052,24.567413 L15.8030052,18.7094831 C18.4195209,16.7967089 19.9655488,13.6286341 19.9655488,10.2214493 C19.9655488,4.54287802 15.8030052,0 10.7484059,0 Z" id="Fill-3" fill="#FFFFFF"></path>
                    </g>
                    <path d="M10.942641,7.92908563 L15.0384267,5.62237474 L16.582624,7.54265446 L12.1353901,10.0364766 L12.1353901,16.0444278 L9.75010806,16.0444278 L9.75010806,10.0364766 L5.30301433,7.54273305 L6.84675487,5.62231818 L10.942641,7.92908563 Z M10.942641,9.65061548 L11.2501081,9.47745271 L11.2501081,9.15787189 L10.9427491,8.98551788 L10.6353901,9.15787189 L10.6353901,9.47757443 L10.942641,9.65061548 Z M14.9335993,7.40294249 L14.974067,7.1939124 L14.3515681,7.07399527 L14.3028742,7.10130076 L14.666436,7.55340651 L14.9335993,7.40294249 Z M10.6353901,14.6797099 L10.9427491,14.9870689 L11.2501081,14.6797099 L11.2501081,14.5444278 L10.6353901,14.5444278 L10.6353901,14.6797099 Z M7.53376787,7.0739043 L6.91146619,7.19384116 L6.95200188,7.40312222 L7.21894645,7.55346307 L7.58248384,7.10122217 L7.53376787,7.0739043 Z" id="Fill-7" fill="#1E40E4" fill-rule="nonzero"></path>
                </g>
            </g>
        </g>
    </g>
</svg>