<svg width="40" height="40" xmlns="http://www.w3.org/2000/svg"><g fill="none" fill-rule="evenodd"><rect fill="#1E40E4" width="40" height="40" rx="12"/><path fill="#F9BA48" d="M19.451 9.006l3.628 2.092v4.184l-3.628 2.092-3.627-2.092v-4.184z"/><path d="M20.748 7c-5.054 0-9.217 4.543-9.217 10.162v.179l-1.486 3.228c-.06.12-.06.299 0 .478.06.12.178.299.297.359l2.378 1.135v4.244c0 .36.238.598.595.598h2.973v4.184c0 .359.238.598.595.598h8.325c.357 0 .595-.239.595-.598V25.71c2.617-1.912 4.163-5.08 4.163-8.488C29.966 11.543 25.803 7 20.748 7z" fill="#FFF"/><path d="M20.943 14.93l4.095-2.308 1.545 1.92-4.448 2.494v6.008H19.75v-6.008l-4.447-2.493 1.544-1.92 4.096 2.306zm0 1.72l.307-.173v-.32l-.307-.171-.308.172v.32l.308.173zm3.99-2.247l.041-.21-.622-.119-.05.027.364.452.268-.15zm-4.298 7.277l.308.307.307-.307v-.136h-.615v.136zm-3.101-7.606l-.623.12.041.21.267.15.363-.453-.048-.027z" fill="#1E40E4" fill-rule="nonzero"/></g></svg>